<svg width="72" height="65" viewBox="0 0 72 65" fill="none" xmlns="http://www.w3.org/2000/svg">
<path d="M20.5532 21.1602H5.29384C4.70856 21.1602 4.23438 21.6345 4.23438 22.2196V59.1209C4.23438 59.706 4.7087 60.1804 5.29384 60.1804H66.7034C67.2887 60.1804 67.7628 59.706 67.7628 59.1209V22.2196C67.7628 21.6345 67.2885 21.1602 66.7034 21.1602H24.7914C24.2061 21.1602 23.7319 21.6345 23.7319 22.2196C23.7319 22.8048 24.2062 23.2791 24.7914 23.2791H65.6439V58.0613H6.35331V23.2791H20.5532C21.1385 23.2791 21.6127 22.8048 21.6127 22.2196C21.6128 21.6345 21.1385 21.1602 20.5532 21.1602Z" fill="white"/>
<path d="M68.1151 16.9346H63.4507L40.3349 5.51725C40.3875 5.25512 40.4155 4.98428 40.4155 4.70696C40.4155 2.43868 38.5702 0.593262 36.3019 0.593262C34.0336 0.593262 32.1882 2.43868 32.1882 4.70696C32.1882 4.98428 32.2162 5.25526 32.2688 5.51725L9.153 16.9346H3.88491C1.74277 16.9346 0 18.6774 0 20.8195V60.5215C0 62.6636 1.74277 64.4064 3.88491 64.4064H49.0029C49.588 64.4064 50.0624 63.932 50.0624 63.3469C50.0624 62.7617 49.588 62.2874 49.0029 62.2874H3.88491C2.91122 62.2874 2.11908 61.4953 2.11908 60.5216V20.8195C2.11908 19.8458 2.91122 19.0537 3.88491 19.0537H44.3475C44.9328 19.0537 45.407 18.5793 45.407 17.9942C45.407 17.4091 44.9326 16.9347 44.3475 16.9347H13.9382L33.21 7.41596C33.9645 8.27617 35.0705 8.82081 36.3019 8.82081C37.5334 8.82081 38.6394 8.27617 39.3938 7.41596L58.6657 16.9347H48.5857C48.0005 16.9347 47.5262 17.4091 47.5262 17.9942C47.5262 18.5793 48.0005 19.0537 48.5857 19.0537H68.1151C69.0888 19.0537 69.8809 19.8458 69.8809 20.8195V60.5215C69.8809 61.4951 69.0888 62.2873 68.1151 62.2873H53.2409C52.6556 62.2873 52.1814 62.7616 52.1814 63.3467C52.1814 63.9319 52.6558 64.4062 53.2409 64.4062H68.1151C70.2572 64.4062 72 62.6634 72 60.5213V20.8195C72 18.6774 70.2574 16.9346 68.1151 16.9346ZM36.3019 6.70173C35.2021 6.70173 34.3073 5.80693 34.3073 4.70711C34.3073 3.60728 35.2021 2.71248 36.3019 2.71248C37.4017 2.71248 38.2965 3.60728 38.2965 4.70711C38.2964 5.80693 37.4016 6.70173 36.3019 6.70173Z" fill="white"/>
<path d="M18.047 35.2894C18.6322 35.2894 19.1065 34.815 19.1065 34.2299C19.1065 33.6447 18.6322 33.1704 18.047 33.1704H13.497C12.9117 33.1704 12.4375 33.6447 12.4375 34.2299V45.5582C12.4375 45.5593 12.4376 45.5603 12.4376 45.5614C12.4376 45.5626 12.4375 45.5636 12.4375 45.5647C12.4375 46.1498 12.9118 46.6241 13.497 46.6241H18.047C18.6322 46.6241 19.1065 46.1498 19.1065 45.5647C19.1065 44.9795 18.6322 44.5052 18.047 44.5052H14.5564V40.9568H18.047C18.6322 40.9568 19.1065 40.4825 19.1065 39.8973C19.1065 39.3122 18.6322 38.8379 18.047 38.8379H14.5564V35.2896H18.047V35.2894Z" fill="white"/>
<path d="M32.9227 46.6244H37.473C38.0581 46.6244 38.5324 46.15 38.5324 45.5649C38.5324 44.9797 38.0581 44.5054 37.473 44.5054H33.9822V40.957H37.473C38.0581 40.957 38.5324 40.4827 38.5324 39.8976C38.5324 39.3124 38.0581 38.8381 37.473 38.8381H33.9822V35.2898H37.473C38.0581 35.2898 38.5324 34.8155 38.5324 34.2304C38.5324 33.6452 38.0581 33.1709 37.473 33.1709H32.9227C32.3376 33.1709 31.8633 33.6452 31.8633 34.2304V45.5587C31.8633 45.5598 31.8634 45.5608 31.8634 45.5619C31.8634 45.5631 31.8633 45.564 31.8633 45.5652C31.8633 46.15 32.3375 46.6244 32.9227 46.6244Z" fill="white"/>
<path d="M20.4532 34.5146L23.4232 45.1727C23.6651 46.0411 24.4333 46.6244 25.3347 46.6244C26.236 46.6244 27.0042 46.0409 27.2461 45.1727L30.2161 34.5146C30.3732 33.951 30.0436 33.3667 29.4799 33.2096C28.9157 33.0524 28.3319 33.3823 28.1748 33.9458L25.3346 44.1381L22.4942 33.9458C22.3373 33.3822 21.7536 33.0527 21.1891 33.2096C20.6259 33.3667 20.2961 33.951 20.4532 34.5146Z" fill="white"/>
<path d="M42.865 45.5584V38.2772L47.2534 46.084C47.5012 46.5246 48.0433 46.731 48.5217 46.5666C48.9447 46.4214 49.2365 46.0119 49.2365 45.5647V34.23C49.2365 33.6449 48.7621 33.1706 48.177 33.1706C47.5919 33.1706 47.1175 33.6449 47.1175 34.23V41.5176L42.7292 33.7108C42.4929 33.2908 42.003 33.0831 41.5373 33.205C41.0711 33.3271 40.7461 33.7481 40.7461 34.23V45.5584C40.7461 46.1435 41.2204 46.6178 41.8056 46.6178C42.3908 46.618 42.865 46.1435 42.865 45.5584Z" fill="white"/>
<path d="M55.4515 46.6244C56.0368 46.6244 56.511 46.15 56.511 45.5649V35.2962H59.1092C59.6944 35.2962 60.1686 34.8219 60.1686 34.2367C60.1686 33.6516 59.6943 33.1772 59.1092 33.1772H51.7938C51.2086 33.1772 50.7344 33.6516 50.7344 34.2367C50.7344 34.8219 51.2087 35.2962 51.7938 35.2962H54.392V45.5649C54.392 46.15 54.8664 46.6244 55.4515 46.6244Z" fill="white"/>
</svg>
