<svg width="70" height="71" viewBox="0 0 70 71" fill="none" xmlns="http://www.w3.org/2000/svg">
<path d="M66.5 22H69.875V19.75H67.2537L61.9606 6.89462C60.3913 3.0865 56.717 0.625 52.5984 0.625H34.2721C30.824 0.625 27.6447 2.35413 25.7705 5.24875L16.2845 19.9086L0.94175 24.2939C0.458 24.4311 0.125 24.8732 0.125 25.375V40C0.125 40.621 0.627875 41.125 1.25 41.125H6.94137C7.50275 46.1796 11.7969 50.125 17 50.125C22.2031 50.125 26.4972 46.1796 27.0586 41.125H30.6485L31.256 42.0374C32.9694 44.6069 33.875 47.5983 33.875 50.6875C33.875 53.7767 32.9694 56.7681 31.256 59.3376L30.4347 60.5706C29.7417 61.6101 29.3761 62.8206 29.3761 64.0683C29.375 67.5456 32.2044 70.375 35.6806 70.375C36.9294 70.375 38.1399 70.0082 39.1782 69.3164L39.9433 68.8067C41.2044 67.9664 42.569 67.3071 43.9989 66.8189V70.375H46.2489V65.875C46.2489 65.4993 46.061 65.1482 45.7483 64.939L39.5 60.7731V56.875C39.5 56.2551 40.004 55.75 40.625 55.75C41.246 55.75 41.75 56.2551 41.75 56.875V60.25H44V56.875V45.625C44 45.0051 44.504 44.5 45.125 44.5C45.746 44.5 46.25 45.0051 46.25 45.625V47.875V53.5H48.5V47.875V45.625V43.375C48.5 42.7551 49.004 42.25 49.625 42.25C50.246 42.25 50.75 42.7551 50.75 43.375V45.625V47.875V53.5H53V47.875V45.625C53 45.0051 53.504 44.5 54.125 44.5C54.746 44.5 55.25 45.0051 55.25 45.625V50.125V53.5H57.5V50.125C57.5 49.5051 58.004 49 58.625 49C59.246 49 59.75 49.5051 59.75 50.125V62.0342L57.8296 63.9546C57.6181 64.165 57.5 64.4519 57.5 64.75V70.375H59.75V69.1015L60.0706 69.3152C61.1101 70.0082 62.3195 70.375 63.5694 70.375C67.0456 70.375 69.875 67.5456 69.875 64.0694C69.875 62.8206 69.5094 61.6112 68.8164 60.5718L67.9951 59.3387C66.2806 56.7681 65.375 53.7767 65.375 50.6875C65.375 47.5983 66.2806 44.6069 67.994 42.0374L68.8152 40.8044C69.5082 39.7649 69.8739 38.5544 69.8739 37.3067C69.875 33.8294 67.0456 31 63.5694 31C62.3206 31 61.1101 31.3668 60.0718 32.0586L59.3067 32.5682C56.4301 34.4864 53.0821 35.5 49.625 35.5C46.1679 35.5 42.8199 34.4864 39.9444 32.5694L39.1794 32.0597C38.1399 31.3667 36.9305 31 35.6806 31C32.2044 31 29.375 33.8294 29.375 37.3056C29.375 37.84 29.456 38.3643 29.5865 38.875H27.0586C26.4972 33.8204 22.2031 29.875 17 29.875C11.7969 29.875 7.50275 33.8204 6.94137 38.875H2.375V32.125H5.75C6.37213 32.125 6.875 31.621 6.875 31V24.9374L17.3083 21.9561C17.5704 21.8819 17.7965 21.7142 17.9439 21.4859L27.6594 6.47162C29.1174 4.21937 31.589 2.875 34.2721 2.875H52.5984C55.8024 2.875 58.661 4.78975 59.8805 7.75187L65.4605 21.3036C65.6326 21.7244 66.0444 22 66.5 22ZM35.6806 33.25C36.4839 33.25 37.2612 33.4851 37.9306 33.9306L38.6956 34.4403C41.9435 36.6059 45.7224 37.75 49.625 37.75C53.5276 37.75 57.3065 36.6059 60.5544 34.4414L61.3194 33.9318C61.9888 33.4863 62.7661 33.2511 63.5694 33.2511C65.8059 33.25 67.625 35.0691 67.625 37.3056C67.625 38.1089 67.3899 38.8874 66.9444 39.5556L66.1231 40.7886C64.1611 43.7294 63.125 47.1516 63.125 50.6875C63.125 54.2234 64.1611 57.6456 66.122 60.5864L66.9433 61.8194C67.3887 62.4876 67.6239 63.2661 67.6239 64.0694C67.625 66.3059 65.8059 68.125 63.5694 68.125C62.7661 68.125 61.9888 67.8899 61.3194 67.4444L60.5544 66.9348C60.2923 66.7604 60.0189 66.6062 59.75 66.4454V65.2169L61.6704 63.2965C61.8819 63.085 62 62.7981 62 62.5V50.125C62 48.2643 60.4857 46.75 58.625 46.75C58.229 46.75 57.8532 46.831 57.5 46.957V45.625C57.5 43.7643 55.9857 42.25 54.125 42.25C53.6806 42.25 53.2587 42.3411 52.8695 42.4975C52.4814 41.0631 51.1809 40 49.625 40C48.0691 40 46.7698 41.0631 46.3805 42.4975C45.9913 42.3411 45.5694 42.25 45.125 42.25C43.2643 42.25 41.75 43.7643 41.75 45.625V53.707C41.3968 53.581 41.021 53.5 40.625 53.5C38.7643 53.5 37.25 55.0143 37.25 56.875V61.375C37.25 61.7508 37.4379 62.1017 37.7506 62.311L42.029 65.1629C40.868 65.6489 39.7486 66.2316 38.6956 66.9336L37.9306 67.4433C37.2612 67.8887 36.4839 68.1239 35.6806 68.1239C33.4441 68.125 31.625 66.3059 31.625 64.0694C31.625 63.2661 31.8601 62.4876 32.3056 61.8194L33.1269 60.5864C35.0889 57.6456 36.125 54.2234 36.125 50.6875C36.125 47.1516 35.0889 43.7294 33.128 40.7886L32.3068 39.5556C31.8613 38.8874 31.6261 38.1089 31.6261 37.3056C31.625 35.0691 33.4441 33.25 35.6806 33.25ZM17 32.125C21.3414 32.125 24.875 35.6575 24.875 40C24.875 44.3425 21.3414 47.875 17 47.875C12.6586 47.875 9.125 44.3425 9.125 40C9.125 35.6575 12.6586 32.125 17 32.125ZM4.625 29.875H2.375V26.2232L4.625 25.5809V29.875Z" fill="#2B8761"/>
<path d="M17 45.625C20.1016 45.625 22.625 43.1016 22.625 40C22.625 36.8984 20.1016 34.375 17 34.375C13.8984 34.375 11.375 36.8984 11.375 40C11.375 43.1016 13.8984 45.625 17 45.625ZM17 36.625C18.8608 36.625 20.375 38.1393 20.375 40C20.375 41.8608 18.8608 43.375 17 43.375C15.1393 43.375 13.625 41.8608 13.625 40C13.625 38.1393 15.1393 36.625 17 36.625Z" fill="#2B8761"/>
<path d="M61.8024 21.5117C62.0128 21.2069 62.0589 20.8176 61.925 20.4711L57.4104 8.73062C56.5801 6.574 54.4696 5.125 52.16 5.125H35.2648C33.2971 5.125 31.5061 6.12625 30.4734 7.8025L22.7919 20.2855C22.5781 20.6331 22.5691 21.0674 22.7683 21.424C22.9674 21.7806 23.3431 22 23.7504 22H60.8754C61.2455 22 61.5931 21.8178 61.8024 21.5117ZM32.3904 8.9815C33.0091 7.97575 34.0846 7.375 35.2648 7.375H41.7504V19.75H25.763L32.3904 8.9815ZM44.0004 19.75V7.375H52.16C53.5449 7.375 54.8116 8.24463 55.31 9.53838L59.2374 19.75H44.0004Z" fill="#2B8761"/>
<path d="M39.5 24.25H44V26.5H39.5V24.25Z" fill="#2B8761"/>
<path d="M57.5 24.25H62V26.5H57.5V24.25Z" fill="#2B8761"/>
<path d="M26 62.5C23.5182 62.5 21.5 60.4818 21.5 58C21.5 57.379 20.9971 56.875 20.375 56.875C19.7529 56.875 19.25 57.379 19.25 58C19.25 60.4818 17.2318 62.5 14.75 62.5C14.1279 62.5 13.625 63.004 13.625 63.625C13.625 64.246 14.1279 64.75 14.75 64.75C17.2318 64.75 19.25 66.7682 19.25 69.25C19.25 69.871 19.7529 70.375 20.375 70.375C20.9971 70.375 21.5 69.871 21.5 69.25C21.5 66.7682 23.5182 64.75 26 64.75C26.6221 64.75 27.125 64.246 27.125 63.625C27.125 63.004 26.6221 62.5 26 62.5ZM20.375 65.5229C19.8755 64.7714 19.2286 64.1256 18.4771 63.625C19.2286 63.1255 19.8744 62.4786 20.375 61.7271C20.8745 62.4786 21.5214 63.1244 22.2729 63.625C21.5214 64.1245 20.8745 64.7714 20.375 65.5229Z" fill="#2B8761"/>
<path d="M12.5 54.625C10.0182 54.625 8 52.6068 8 50.125C8 49.504 7.49713 49 6.875 49C6.25287 49 5.75 49.504 5.75 50.125C5.75 52.6068 3.73175 54.625 1.25 54.625C0.627875 54.625 0.125 55.129 0.125 55.75C0.125 56.371 0.627875 56.875 1.25 56.875C3.73175 56.875 5.75 58.8932 5.75 61.375C5.75 61.996 6.25287 62.5 6.875 62.5C7.49713 62.5 8 61.996 8 61.375C8 58.8932 10.0182 56.875 12.5 56.875C13.1221 56.875 13.625 56.371 13.625 55.75C13.625 55.129 13.1221 54.625 12.5 54.625ZM6.875 57.6479C6.3755 56.8964 5.72863 56.2495 4.97713 55.75C5.72863 55.2505 6.3755 54.6036 6.875 53.8521C7.3745 54.6036 8.02138 55.2505 8.77287 55.75C8.02138 56.2495 7.3745 56.8964 6.875 57.6479Z" fill="#2B8761"/>
<path d="M1.25 8.5C3.73175 8.5 5.75 10.5182 5.75 13C5.75 13.621 6.25287 14.125 6.875 14.125C7.49713 14.125 8 13.621 8 13C8 10.5182 10.0182 8.5 12.5 8.5C13.1221 8.5 13.625 7.996 13.625 7.375C13.625 6.754 13.1221 6.25 12.5 6.25C10.0182 6.25 8 4.23175 8 1.75C8 1.129 7.49713 0.625 6.875 0.625C6.25287 0.625 5.75 1.129 5.75 1.75C5.75 4.23175 3.73175 6.25 1.25 6.25C0.627875 6.25 0.125 6.754 0.125 7.375C0.125 7.996 0.627875 8.5 1.25 8.5ZM6.875 5.47713C7.3745 6.22863 8.02138 6.8755 8.77287 7.375C8.02138 7.8745 7.3745 8.52138 6.875 9.27287C6.3755 8.52138 5.72863 7.8745 4.97713 7.375C5.72863 6.8755 6.3755 6.22863 6.875 5.47713Z" fill="#2B8761"/>
</svg>
